<svg version="1.0" xmlns="http://www.w3.org/2000/svg" width="240" height="240" viewBox="0 0 180 180"><path d="M44.7 2.2c-1.4 1.3-4.9 5.2-7.9 8.8-4.3 5.2-5.6 7.7-6.7 12.5-.7 3.3-1.7 7-2.2 8.3-.5 1.3-.9 3.4-.9 4.7 0 1.3-.5 2.7-1.1 3.1-.9.5-1 4-.6 12l.6 11.3-2.7.3c-2.3.3-2.8.9-3.5 4.8-.8 4.8-.1 17.1 1.4 22.3 1.3 4.7 8.8 15.2 12.1 17.2 1.7 1 3.9 1.4 5.2 1.1 2-.5 2.5 0 3.5 3.7 1.8 6 6.6 13.1 12 17.7l4.6 4h-7.8c-11.8 0-18.8 3.8-22.8 12.5-1.5 3.3-1.9 6.5-1.9 18.7V180h91.9l-2.4-3.6c-2.6-3.9-4.1-9.4-3.1-11.9.5-1.3 2-1.5 7.8-1.3 6.9.3 7.3.4 7.6 2.8.6 3.8-1.6 9.7-4.5 11.9l-2.6 2.1h31.5l-.4-15.3c-.4-17.9-2-22.8-9.1-27.5-3.6-2.4-5.1-2.7-14.8-3l-10.7-.4 7.9-7.5c6.5-6.2 8.2-8.5 9.6-12.9 1.6-5.3 1.8-5.4 5.4-5.4 3 0 4.3-.7 7.4-4.1 5.7-6.3 9.2-14.7 9.9-23.7.8-9.7-.2-16.1-2.9-17.6-1.1-.6-2.2-1.2-2.4-1.3-.2-.1-.3-3.9-.2-8.4.1-4.9-.4-10.3-1.3-13.3-.8-2.8-2.2-8.2-3.1-12-2.5-10.4-5.7-16.5-11.6-22.4L130.6 0h-17.1l3.3 1.7c7.6 3.7 20.7 21.9 21.8 30.3.4 3.3-.1 6.4-1.9 11.5-2.4 7-2.4 7-.5 12 1.1 3.1 1.7 7.3 1.6 11.1-.1 3.3.2 6.6.6 7.2.3.6-.1 1.5-1 2-1.1.6-1.3 1.2-.6 1.6.7.4.1 2.5-1.7 6.1-3 5.8-3 6.1 0 4.5 1.6-.9 1.9-.7 1.9 1.2 0 3.7-1.2 6.8-2.2 6.2-.6-.4-.5.3.1 1.5.7 1.2.9 2.7.5 3.3-.4.7-.9 2.6-1.1 4.2-.2 1.7-.8 3.5-1.3 4-.6.6-1 1.8-1 2.8 0 1.1-.7 3.3-1.6 5-1.2 2.4-1.8 2.8-2.5 1.7-.6-1.1-.9-.8-.9.8 0 2.8-.8 2.9-2.7.5-1.3-1.5-1.3-1.5-.3.6 1 2 .8 2.8-1.1 4.8-2.2 2.3-2.4 2.4-3.6.8-.7-1-1.3-1.3-1.3-.7 0 .7.5 1.5 1 1.8 1.5.9.1 2.7-1.6 2.1-.8-.3-1.4.1-1.4 1 0 .8-.4 1.2-1 .9-.5-.3-1 .1-1 .9 0 .9-.6 1.6-1.4 1.6-.7 0-1.9.7-2.6 1.5-1 1.2-1.6 1.3-2.7.4-1.1-1-1.2-.9-.7.5.3.9.2 1.6-.4 1.6-.6 0-1.3-.6-1.5-1.3-.3-.6-.6-.2-.6.9-.1 2.4-2.7 4-3.5 2.1-.2-.7-.5-.4-.5.5-.1 2.1-2.7 2.4-3.4.5-.3-.6-.6-.3-.7.8-.1 1.6-.4 1.5-1.6-1l-1.4-3 .5 3.2.6 3.1h-4.5c-4.1 0-4.5-.2-4.9-2.6l-.4-2.7-.2 2.8c0 1.6-.5 2.6-1.1 2.2-.5-.3-.6-1.3-.3-2.3.6-1.4.4-1.5-.9-.5-1.1 1-2.3 1-4.7.2-1.7-.6-3.1-1.5-3.1-2.1 0-.5-.5-.6-1-.3-1.2.7-9-3.4-9-4.7 0-.5-.5-.6-1-.3-.6.3-1.4-.4-1.9-1.7-.6-1.3-1-1.7-1-1-.1 1.7-6-2.7-6-4.5-.1-.7-.6-1.2-1.3-1-1.7.3-7.1-9-7.1-12.3 0-1.6-.4-2.7-.9-2.4-.9.6-1 .4-1.2-5.3-.2-2.4-.5-4.6-.9-4.9-.3-.4-.2-1.6.4-2.7.8-1.4.8-1.8 0-1.3-.6.4-1.1.1-1.1-.8 0-.8.4-1.8 1-2.1.5-.3 1-1.2 1-1.8 0-.7-.4-.6-1 .3-.8 1.2-1 1-1-.9 0-1.8.4-2.2 2-1.8 2.1.5 2.8-.7 1-1.8-1.9-1.2-4.8-8.9-5.4-14.5-.4-3-.9-7.8-1.2-10.6-.5-3.9-.1-6.2 1.5-9.8 1.8-4.2 2-6 1.5-14.9-.6-10.1-.5-10.3 2.9-17.3 4-8.2 8.7-13.3 15.5-16.8L64.5.1 55.8 0c-7.7 0-9 .3-11.1 2.2zm109.8 68.1c1 7.6-.9 18.9-3.9 24.1-4.5 7.7-7.6 10.7-10.5 10.4-4.7-.5-1.9-6.8 3.4-7.3 4.1-.5 5.3-2.1 4.9-6.6-.2-2.2-.8-4.8-1.4-5.9-1.4-2.7-1.2-3.4.5-2 .8.7 1.5 2.1 1.5 3.1s.5 2.1 1 2.4c2.2 1.3.9-4.7-1.5-7.1-1.4-1.4-2.5-2.9-2.5-3.4 0-1.4 2.4-1.2 3.8.2.6.6 1.4.9 1.7.6.4-.3-.4-1.6-1.6-2.7l-2.3-2.1 2.2-2.2 2.2-2.2v3.7c0 2 .5 3.7 1 3.7.6 0 1-1.6 1-3.5 0-4.6-2.3-5.5-5.6-2.5-1.9 1.9-2.4 2-2.4.8 0-1.6 5.4-6.8 7-6.8.5 0 1.2 2.4 1.5 5.3zM29 69.2c1.6 1.8 3 4 3 4.8 0 .8-1.3-.1-2.8-2-3.6-4.2-6.2-3.7-6.2 1.3 0 4 2.4 6.7 4.2 4.9 1.5-1.5 3.8-1.5 3.8-.1 0 .7-1.1 2.2-2.5 3.5-2.4 2.2-3.7 8.3-1.5 6.9.6-.3 1-1.4 1-2.4s.7-2.4 1.5-3.1c1.9-1.6 1.9-1.1 0 3.4-1.2 2.7-1.3 4.2-.5 5.6.8 1.5.8 2-.1 2-.7 0-.5.8.6 2 1 1.1 2.8 2 3.9 2 3 0 4.3 1.1 5.1 4.3.6 2.4.4 2.7-1.7 2.7-5.7 0-13.2-12.7-14.2-24.2-.9-8.7 0-14.8 2-14.8.8 0 2.8 1.5 4.4 3.2zm-1 3.9c.7 1.1 1 2.2.8 2.3-.2.1-1.1.8-2 1.5-1.6 1.2-1.8 1-1.8-2.3 0-4 1.3-4.7 3-1.5zm4.4 15.8c-.4 1.9-1 2.9-1.6 2.3-.5-.5-.4-2 .2-3.7.6-1.5 1.3-2.6 1.5-2.3.3.3.2 1.9-.1 3.7zm112.2 4.7c-.6 1.5-3.3 3-4.1 2.2-.3-.2 0-2.1.6-4.2 1-3.8 1.1-3.8 2.6-1.7.8 1.2 1.2 2.9.9 3.7zm-108.2 0c.9 3.4.5 3.7-2.3 1.8-1.7-1.3-2-1.9-1-3 1.7-2.1 2.6-1.7 3.3 1.2zm29.4 48.1c1 3.7 2.8 6.1 8.5 11.7 4 3.9 8.7 7.9 10.4 8.8l3 1.8 7-4.9c8.5-6 14.9-13.1 16.5-18.2.8-2.8 1.7-3.9 3.1-3.9 1.7 0 1.9.5 1.3 3.2-1 4.9-4.2 10.9-8.3 15.8-3.7 4.3-17.4 14-19.8 14-2.2 0-15.2-9.8-18.8-14.2-6.1-7.5-9.3-16.2-6.6-17.9 2.2-1.4 2.4-1.2 3.7 3.8zm10.7 1.3c9.2 3.9 14.8 3.9 23.9 0 3.8-1.6 7.1-2.8 7.3-2.7.2.2-1.1 2.5-2.8 5.1-4.2 6.3-16.3 15-19 13.6-5.3-2.9-16.9-15.5-16.9-18.5 0-.7-.1-.8 7.5 2.5z"/><path d="M66 .8c0 .5.9 1.7 2 2.7 2 1.8 2.5 1.1 1.4-1.9C68.8-.1 66-.7 66 .8zM70 .4c0 .2.9.6 2 .9 1.1.3 2 .1 2-.4s-.9-.9-2-.9-2 .2-2 .4zM80.4 1.6c.3.9.6 2 .6 2.5 0 .6.5.7 1 .4 1.6-1 1.2-4.5-.6-4.5-1.1 0-1.4.5-1 1.6zM86.6 2.2c.9 2.9 3.5 7 4.1 6.4 1-1-1.9-8.6-3.3-8.6-1.1 0-1.3.6-.8 2.2zM90 .7c.1.5.7 1.9 1.5 3.3l1.4 2.5.1-3.3C93 1 92.5 0 91.5 0c-.8 0-1.5.3-1.5.7zM95 2.9c0 2.1.4 2.9 1.3 2.5.8-.3 1.8.9 2.6 3.1.7 2 1.5 3.4 1.8 3.1 1-1-.9-6.6-3.3-9.1L95-.1v3zM99 .9c0 .5.7 1.4 1.5 2.1 1.3 1 1.5.9 1.5-.9 0-1.2-.6-2.1-1.5-2.1-.8 0-1.5.4-1.5.9zM104.4.9c.3.5 1.5.7 2.6.4 1.6-.4 2 0 2 1.8.1 2.3.1 2.3 1.5.5 2.3-3 1.8-3.6-2.6-3.6-2.2 0-3.8.4-3.5.9zM65 3.7c0 .7 1.1 2.5 2.5 4C68.8 9.2 70 10 70 9.3c0-.7-1.1-2.5-2.5-4C66.2 3.8 65 3 65 3.7zM75 6.4c0 1.9.9 4.4 2 5.7 2.2 2.8 2.5 1.6.9-4.7-1.3-5.2-2.9-5.8-2.9-1zM103.8 3.6c-.5.4-.8 2.3-.8 4.3.1 3 .2 3.3 1.1 1.8 1.1-1.9.8-7.3-.3-6.1zM71.4 5.4c-.4 1.1 0 2.4 1 3.4 1.5 1.5 1.6 1.5 1.6-.3 0-1.1-.4-2.7-1-3.5-.8-1.2-1-1.2-1.6.4zM84 6.9c0 3 3.9 9 4 6.1 0-2.7-2.1-9-3-9-.6 0-1 1.3-1 2.9zM80 9.5c0 1.6.5 3.7 1 4.5.7 1.2 1 .8 1-1.5 0-1.7-.5-3.7-1-4.5-.7-1.2-1-.8-1 1.5zM95 8.7c0 .5.7 1.8 1.5 2.9 1.3 1.8 1.4 1.8.8-.4C96.8 9 95 7.1 95 8.7zM93 12c0 1.4.5 3.2 1 4 .8 1.2 1 1 1-1 0-1.4-.5-3.2-1-4-.8-1.2-1-1-1 1zM89.5 13.2c-.4.9-.1 2.7.7 4l1.3 2.3.3-2.2c.2-1.2-.1-3-.7-4-.9-1.7-1-1.7-1.6-.1zM83 16.2c0 1.3.7 3.2 1.5 4.2 1.4 1.9 1.5 1.9 1.5-.6 0-3.3-.9-5.8-2.1-5.8-.5 0-.9 1-.9 2.2zM50.6 48.1c-.3.8-.7 2.3-.9 3.4-.3 1.4-.5 1.1-.6-.9 0-1.6-.3-2.7-.6-2.4-.9.9-2.2 9.8-1.4 9.8.4 0 1-1 1.2-2.3.4-2.1.4-2.1.6-.1.1 1.9 1 2.2 7.4 3.1 6.3.9 6.6 1 2.6 1.2-4.6.1-9 2.3-7.6 3.7.4.4 1.3.2 1.9-.4 1.5-1.5 13.6-1.6 17.2-.2 2.6.9 3.8-.3 1.4-1.4-2-.9 3.4.4 6.5 1.6 2.4.9 2.7 1.6 2.8 5.7.2 11.4-.2 16.1-2 21.2l-1.8 5.5 2.7 3.2c3.2 3.9 4.8 3.1 1.8-.9-2.2-2.9-2.2-2.9-.3-8.1 2.1-6 2.5-21.3.6-26.1-.6-1.6-1.1-5.1-1.1-7.8s-.4-4.9-1-4.9c-.5 0-1 .7-1 1.6 0 1.2-.5 1.4-1.7.9-5.2-2.2-16.7-5.5-21.2-6.1-3.9-.5-5.2-.3-5.5.7zM114.6 48.6c-3.8.9-9.1 2.6-11.8 4L98 55v-2.5c0-2.8-1.5-3.4-2.4-.9-.7 1.9-.8 10.9-.1 11.6.3.3 2.4.2 4.5-.2 2.2-.4 4.3-.4 4.6.1.2.4 1.2.6 2.2.3.9-.2.7.1-.5.7s-2.3 2-2.6 3c-.4 1.5-.2 1.7 1.3.9 2.6-1.4 2.6-1.4 2.2 2.4-.3 2.7.1 3.7 2.3 5.5 3.5 2.7 5.5 2.7 9-.1 2.3-1.8 2.6-2.7 2.2-5.5-.7-3.9.5-4.2 3.8-.8 2.2 2.1 2.5 2.2 2.5.6 0-1-.9-2.9-1.9-4.2-1.6-2-3.2-2.5-9.3-3l-7.3-.6 7.6-.1c4.7-.1 7.9.2 8.7 1 .9.9 1.2.9 1.2 0 0-1.9-3.6-3.2-9.2-3.3-7.7-.1-3.1-1.7 5.1-1.8l6.3-.1-.7-3.7c-1.5-7.9-1.8-8-12.9-5.7zm4.4 19.9c0 .9-.7 1.8-1.6 2.2-1.8.7-3.9-1.1-3-2.6 1.1-1.7 4.6-1.3 4.6.4zM127.6 49.5c1.1 4.8 2.4 7.8 3 7.2.7-.6-1.6-7.7-2.9-9.2-.5-.6-.5.3-.1 2zM130.1 48.5c0 1.1.6 3.3 1.4 5 1.7 3.9 1.8 1.1 0-3.5-.9-2.3-1.4-2.8-1.4-1.5zM45.1 51.7c0 1.2-.4 3-.7 4-.5 1.4-.4 1.5.5.7.7-.6 1.1-2.4.8-4-.3-2.1-.4-2.3-.6-.7z"/><path d="M53.2 64.7c-1.2 1-2.4 3.1-2.8 4.8l-.7 3 2.6-2.8c1.4-1.5 3.4-2.7 4.4-2.7 1.3 0 1.4.3.5 1.2-.7.7-1.2 2-1.2 3 0 2.7 4.5 6.8 7.3 6.8 3.4 0 6.7-3.5 6.7-7.2 0-2.9-.1-3-1.4-1.3-1.4 2-5.1 1.4-4.3-.8.4-1.3 6.2-1.5 9.1-.2 1.6.7 1.7.6.7-1.4-1.6-3-5-4.1-12.6-4.1-4.5 0-6.9.5-8.3 1.7zM52 79c0 2.9 12.3 4.1 16.8 1.7 2-1.1 1.4-1.2-4.2-.9-3.6.2-7.9-.1-9.6-.6-1.7-.6-3-.7-3-.2zM122 79.2c-1.4.5-5.6.8-9.4.6-6.3-.3-6.7-.3-4 .9 4 1.7 12.6 1.6 15-.1 2.5-1.9 1.6-2.6-1.6-1.4zM133.5 91c.3.5.8 1 1.1 1 .2 0 .4-.5.4-1 0-.6-.5-1-1.1-1-.5 0-.7.4-.4 1zM46.7 94.7c-.4.3-.7 1.1-.7 1.7 0 .6.5.5 1.2-.2.6-.6.9-1.4.7-1.7-.3-.3-.9-.2-1.2.2zM131 96c0 .5.5 1 1.1 1 .5 0 .7-.5.4-1-.3-.6-.8-1-1.1-1-.2 0-.4.4-.4 1zM46.5 100.1c-.4.6-.5 1.2-.2 1.5.2.3.7-.2 1-1.1.7-1.7.1-2-.8-.4zM50.7 99.7c-.4.3-.7 1.1-.7 1.7 0 .6.5.5 1.2-.2.6-.6.9-1.4.7-1.7-.3-.3-.9-.2-1.2.2zM130 99.9c0 .5.5 1.3 1 1.6.6.3 1 .2 1-.4 0-.5-.4-1.3-1-1.6-.5-.3-1-.2-1 .4zM126.5 101c.3.5.8 1 1.1 1 .2 0 .4-.5.4-1 0-.6-.5-1-1.1-1-.5 0-.7.4-.4 1zM53.9 102.7c-1.3 1.6-1.2 1.7.4.4.9-.7 1.7-1.5 1.7-1.7 0-.8-.8-.3-2.1 1.3zM58.6 102.6c-.9 2.4-.2 2.6 1.2.4.7-1.1.8-2 .3-2s-1.2.7-1.5 1.6zM118 103.1c.7 1.1 1.4 1.9 1.6 1.6.7-.7-.7-3.7-1.7-3.7-.6 0-.5.9.1 2.1zM122 101.4c0 .2.8 1 1.8 1.7 1.5 1.3 1.6 1.2.3-.4s-2.1-2.1-2.1-1.3zM89.3 102.8c-.8.5-.9 1.3-.3 2.2.9 1.3 1 1.3 1 0 .1-1.2.4-1.1 1.5.4.8 1.1 1.7 1.8 1.9 1.5 1-.9-2.9-4.8-4.1-4.1zM61.5 104c-.3.5-.2 1 .4 1 .5 0 1.3-.5 1.6-1 .3-.6.2-1-.4-1-.5 0-1.3.4-1.6 1zM80.1 104.8c-1.7 3.1-1.3 4 .5 1.4.9-1.3 1.4-2.6 1.1-2.9-.3-.2-1 .4-1.6 1.5zM82.7 104.9c-.4 1.7-.3 2.1.5 1.3.5-.5.8-1.6.6-2.3-.3-.8-.7-.3-1.1 1zM94.1 103.5c0 .5.6 1.9 1.4 2.9.8 1.1 1.5 1.5 1.5 1 0-.6-.7-1.9-1.5-3-.8-1-1.4-1.5-1.4-.9zM114.5 104c.3.5 1.1 1 1.6 1 .6 0 .7-.5.4-1-.3-.6-1.1-1-1.6-1-.6 0-.7.4-.4 1zM45.6 105.7c-.6 1.4-.5 1.5.5.6.7-.7 1-1.5.7-1.8-.3-.3-.9.2-1.2 1.2zM74 105.5c-.7.9-1 1.8-.7 2.1.3.3 1-.4 1.7-1.5 1.3-2.5.8-2.7-1-.6zM76.6 105.5c-.9 2.6-.7 3.2.5 1.2.6-1 .9-2.1.6-2.3-.2-.3-.7.2-1.1 1.1zM98 104.5c0 .5.5 1.7 1 2.5s1 1 1 .5c0-.6-.5-1.7-1-2.5s-1-1.1-1-.5zM101 104.9c0 .5.7 1.5 1.7 2.2 1.5 1.3 1.5 1.2.4-.9-1.2-2.3-2.1-2.8-2.1-1.3zM130 104.4c0 .2.8 1 1.8 1.7 1.5 1.3 1.6 1.2.3-.4s-2.1-2.1-2.1-1.3zM49.6 106.5c-1.1.8-1.5 1.5-.9 1.5s1.6-.7 2.3-1.5c1.6-1.9 1.1-1.9-1.4 0zM65.9 106.7c-1.3 1.6-1.2 1.7.4.4.9-.7 1.7-1.5 1.7-1.7 0-.8-.8-.3-2.1 1.3zM69.9 106.7c-1.3 1.6-1.2 1.7.4.4.9-.7 1.7-1.5 1.7-1.7 0-.8-.8-.3-2.1 1.3zM106 105.4c0 .2.8 1 1.8 1.7 1.5 1.3 1.6 1.2.3-.4s-2.1-2.1-2.1-1.3zM111 106.8c.6 1.3 1.4 2.1 1.8 1.8.3-.4-.2-1.4-1.2-2.4-1.8-1.6-1.8-1.6-.6.6zM127.2 106.6c1 1 2 1.6 2.2 1.3.3-.3-.5-1.1-1.7-1.8-2.1-1.3-2.1-1.2-.5.5zM60.4 107.5c-1 .8-1.4 1.5-.8 1.5.6 0 1.7-.7 2.4-1.5 1.6-1.9.9-1.9-1.6 0zM115 107.5c.7.8 1.7 1.5 2.2 1.5.6 0 .5-.7-.2-1.5s-1.7-1.5-2.2-1.5c-.6 0-.5.7.2 1.5zM122 107c.8.5 2 1 2.5 1 .6 0 .3-.5-.5-1s-1.9-1-2.5-1c-.5 0-.3.5.5 1zM55 109.5c-.7.9-1.1 1.8-.8 2 .3.3 1.1-.1 1.8-1s1.1-1.8.8-2c-.3-.3-1.1.1-1.8 1zM121 108.8c0 .5.7 1.5 1.5 2.2.8.7 1.5.8 1.5.2 0-.5-.7-1.5-1.5-2.2-.8-.7-1.5-.8-1.5-.2zM114 109.6c0 .5.7 1.9 1.5 3 .8 1 1.5 1.4 1.5.8 0-.5-.7-1.9-1.5-3-.8-1-1.5-1.4-1.5-.8zM48.5 111c-.3.5-.2 1 .4 1 .5 0 1.3-.5 1.6-1 .3-.6.2-1-.4-1-.5 0-1.3.4-1.6 1zM62.5 112c-.4 1.2-.5 2.4-.2 2.7.3.2.8-.5 1.2-1.7.4-1.2.5-2.4.2-2.7-.3-.2-.8.5-1.2 1.7zM68.7 110.7c-.4.3-.7 1.1-.7 1.7 0 .6.5.5 1.2-.2.6-.6.9-1.4.7-1.7-.3-.3-.9-.2-1.2.2zM127.5 111c.3.5 1.1 1 1.6 1 .6 0 .7-.5.4-1-.3-.6-1.1-1-1.6-1-.6 0-.7.4-.4 1zM57.5 112c-.3.6.1.7.9.4 1.8-.7 2.1-1.4.7-1.4-.6 0-1.3.4-1.6 1zM74 112.4c2.1 2.1 29 1.9 29-.2 0-.4-6.7-.7-15-.7-9.9-.1-14.6.3-14 .9zM111.5 113c1 1.1 2 2 2.2 2 .2 0-.1-.9-.7-2s-1.6-2-2.2-2c-.6 0-.3.9.7 2zM119.7 112.1c.7.7 1.5 1 1.8.7.3-.3-.2-.9-1.2-1.2-1.4-.6-1.5-.5-.6.5zM49 114.5c-.7.8-.8 1.5-.2 1.5.5 0 1.5-.7 2.2-1.5.7-.8.8-1.5.2-1.5-.5 0-1.5.7-2.2 1.5zM127.2 114.6c1 1 2 1.5 2.4 1.2.3-.4-.5-1.2-1.8-1.8-2.2-1.2-2.2-1.2-.6.6zM53 115.5c-.7.9-.8 1.5-.2 1.5.5 0 1.2-.7 1.6-1.5.3-.8.4-1.5.2-1.5s-.9.7-1.6 1.5zM57.7 114.7c-.4.3-.7 1.1-.7 1.7 0 .6.5.5 1.2-.2.6-.6.9-1.4.7-1.7-.3-.3-.9-.2-1.2.2zM123.6 115.3c.3 1 .9 1.5 1.2 1.2.3-.3 0-1.1-.7-1.8-1-.9-1.1-.8-.5.6zM119.5 116c.3.5.8 1 1.1 1 .2 0 .4-.5.4-1 0-.6-.5-1-1.1-1-.5 0-.7.4-.4 1zM60.5 118c-.4 1.2-.5 2.4-.2 2.7.3.2.8-.5 1.2-1.7.4-1.2.5-2.4.2-2.7-.3-.2-.8.5-1.2 1.7zM65.6 117.6c-.5 1.4-.4 1.5.9.4 1.7-1.4 1.9-2 .6-2-.5 0-1.2.7-1.5 1.6zM110 116.4c0 .2.8 1 1.8 1.7 1.5 1.3 1.6 1.2.3-.4s-2.1-2.1-2.1-1.3zM116 117c0 .8.5 2.2 1 3 .9 1.3 1 1.3 1 0 0-.8-.5-2.2-1-3-.9-1.3-1-1.3-1 0zM49.6 118.7c-.6 1.4-.5 1.5.5.6.7-.7 1-1.5.7-1.8-.3-.3-.9.2-1.2 1.2zM53 120c-.6 1.1-.8 2-.6 2 .3 0 1-.9 1.6-2 .6-1.1.8-2 .6-2-.3 0-1 .9-1.6 2zM68.6 119.7c-.6 1.4-.5 1.5.5.6.7-.7 1-1.5.7-1.8-.3-.3-.9.2-1.2 1.2zM107 118.4c0 .2.8 1 1.8 1.7 1.5 1.3 1.6 1.2.3-.4s-2.1-2.1-2.1-1.3zM57.1 121.7c-1 2.6-1 2.7.4.9.8-1.1 1.5-2.3 1.5-2.8 0-1.5-.7-.8-1.9 1.9zM80.6 121.1c.3.6 1.8.8 3.3.5 1.4-.3 2-.3 1.4 0-2.4 1.1-1.3 2.4 1.5 1.8 2.1-.4 2.4-.3 1.2.5s-.8 1.1 1.8 1.1c2.5 0 3.2-.4 3.2-1.9 0-2.4-1.9-3.1-8.1-3.1-3.4 0-4.8.4-4.3 1.1zM120 122c.6 1.1 1.3 2 1.6 2 .2 0 0-.9-.6-2s-1.3-2-1.6-2c-.2 0 0 .9.6 2zM62.6 122.5c-.9 2.6-.7 3.2.5 1.2.6-1 .9-2.1.6-2.3-.2-.3-.7.2-1.1 1.1zM69.5 123c-1 1.1-1.4 2-.9 2 .5 0 1.5-.9 2.2-2 .7-1.1 1.1-2 .9-2-.2 0-1.2.9-2.2 2zM107 123c.6 1.1 1.6 2 2.2 2 .6 0 .3-.9-.7-2s-2-2-2.2-2c-.2 0 .1.9.7 2zM114 121.5c0 .5.5 1.7 1 2.5s1 1 1 .5c0-.6-.5-1.7-1-2.5s-1-1.1-1-.5zM65.1 122.7c-.1.6-.4 2-.7 3-.5 1.7-.5 1.7.6 0 .6-1 .9-2.3.6-3-.3-.9-.5-.9-.5 0zM112 124.4c0 .8.4 1.7.9 2 .5.4.7-.3.4-1.4-.6-2.3-1.3-2.6-1.3-.6zM58.5 125.1c-.4.6-.5 1.2-.2 1.5.2.3.7-.2 1-1.1.7-1.7.1-2-.8-.4zM71.1 126.2c-1.3 2.2-1.3 2.2.4.8 1.7-1.4 1.7-1.3 1 .9-.4 1.5-.3 2.1.3 1.7.5-.3 1.2-1.5 1.5-2.6.3-1.1.1-1.8-.3-1.5-.5.3-1 .1-1.2-.5-.2-.6-.9 0-1.7 1.2zM105 124.7c0 .6.8 1.7 1.8 2.4 1.6 1.3 1.6 1.3.2-.6-.8-1.1-1.6-2.2-1.7-2.4-.2-.2-.3 0-.3.6zM75.6 126.5c-.3.8-.1 1.5.4 1.5.6 0 1-.7 1-1.5s-.2-1.5-.4-1.5-.6.7-1 1.5zM94 125.7c0 .4.5 1.5 1 2.3.8 1.3 1 1.3 1-.2 0-.9-.4-2-1-2.3-.5-.3-1-.3-1 .2zM87 128c0 .8.5 2.2 1 3 .9 1.3 1 1.3 1 0 0-.8-.5-2.2-1-3-.9-1.3-1-1.3-1 0zM101 127.6c0 .6.7 1.9 1.6 3 1.4 1.8 1.4 1.8.3-.6-1.4-3.1-1.9-3.6-1.9-2.4zM80 130c-.6 1.2-.9 2.4-.7 2.7.3.2 1.1-.5 1.7-1.7.6-1.2.9-2.4.7-2.7-.3-.2-1.1.5-1.7 1.7zM104 128.5c0 .5.5 1.7 1 2.5s1 1 1 .5c0-.6-.5-1.7-1-2.5s-1-1.1-1-.5zM68.6 131.7c-.6 1.4-.5 1.5.5.6.7-.7 1-1.5.7-1.8-.3-.3-.9.2-1.2 1.2zM75.7 132.2c-.9 3.1-.2 3.3 1.1.3.6-1.4.8-2.5.3-2.5s-1.1 1-1.4 2.2zM83.2 132.5c0 1.6.2 2.2.5 1.2.2-.9.2-2.3 0-3-.3-.6-.5.1-.5 1.8zM91.1 132c1.4 3.1 1.9 3.6 1.9 2.4 0-.6-.7-1.9-1.6-3-1.4-1.8-1.4-1.8-.3.6zM97.1 130.6c-.1.5.6 1.9 1.4 3 .8 1 1.5 1.4 1.5.9 0-.6.5-.3 1.1.5.9 1.2 1 1.2.5-.3-.3-1-.6-2.3-.6-2.9 0-.6-.6-.8-1.4-.5-.8.3-1.7.1-2-.6-.2-.7-.5-.7-.5-.1zM108 130.9c0 .6.4 1.3 1 1.6.6.3.7-.1.4-.9-.7-1.8-1.4-2.1-1.4-.7zM72 133c-.6 1.1-.8 2-.6 2 .3 0 1-.9 1.6-2 .6-1.1.8-2 .6-2-.3 0-1 .9-1.6 2zM85.1 131.7c0 .4.4 1.7.9 2.8.8 1.9.9 1.9.9-.2.1-1.2-.3-2.5-.9-2.8-.5-.3-1-.3-.9.2zM95 132.6c0 .6.7 1.9 1.6 3 1.4 1.8 1.4 1.8.3-.6-1.4-3.1-1.9-3.6-1.9-2.4zM78.6 135.5c-.9 2.6-.7 3.2.5 1.2.6-1 .9-2.1.6-2.3-.2-.3-.7.2-1.1 1.1zM89 135.2c0 .7.5 2 1 2.8.8 1.2 1 1.1 1-.7 0-1.2-.4-2.5-1-2.8-.5-.3-1 0-1 .7z"/></svg>