<?xml version="1.0" standalone="no"?>
<!DOCTYPE svg PUBLIC "-//W3C//DTD SVG 20010904//EN"
 "http://www.w3.org/TR/2001/REC-SVG-20010904/DTD/svg10.dtd">
<svg version="1.0" xmlns="http://www.w3.org/2000/svg"
 width="180.000000pt" height="180.000000pt" viewBox="0 0 180.000000 180.000000"
 preserveAspectRatio="xMidYMid meet">
<metadata>
Created by potrace 1.11, written by Peter Selinger 2001-2013
</metadata>
<g transform="translate(0.000000,180.000000) scale(0.100000,-0.100000)"
fill="#000000" stroke="none">
<path d="M447 1778 c-14 -13 -49 -52 -79 -88 -43 -52 -56 -77 -67 -125 -7 -33
-17 -70 -22 -83 -5 -13 -9 -34 -9 -47 0 -13 -5 -27 -11 -31 -9 -5 -10 -40 -6
-120 l6 -113 -27 -3 c-23 -3 -28 -9 -35 -48 -8 -48 -1 -171 14 -223 13 -47 88
-152 121 -172 17 -10 39 -14 52 -11 20 5 25 0 35 -37 18 -60 66 -131 120 -177
l46 -40 -78 0 c-118 0 -188 -38 -228 -125 -15 -33 -19 -65 -19 -187 l0 -148
460 0 459 0 -24 36 c-26 39 -41 94 -31 119 5 13 20 15 78 13 69 -3 73 -4 76
-28 6 -38 -16 -97 -45 -119 l-26 -21 158 0 157 0 -4 153 c-4 179 -20 228 -91
275 -36 24 -51 27 -148 30 l-107 4 79 75 c65 62 82 85 96 129 16 53 18 54 54
54 30 0 43 7 74 41 57 63 92 147 99 237 8 97 -2 161 -29 176 -11 6 -22 12 -24
13 -2 1 -3 39 -2 84 1 49 -4 103 -13 133 -8 28 -22 82 -31 120 -25 104 -57
165 -116 224 l-53 52 -85 0 -86 0 33 -17 c76 -37 207 -219 218 -303 4 -33 -1
-64 -19 -115 -24 -70 -24 -70 -5 -120 11 -31 17 -73 16 -111 -1 -33 2 -66 6
-72 3 -6 -1 -15 -10 -20 -11 -6 -13 -12 -6 -16 7 -4 1 -25 -17 -61 -30 -58
-30 -61 0 -45 16 9 19 7 19 -12 0 -37 -12 -68 -22 -62 -6 4 -5 -3 1 -15 7 -12
9 -27 5 -33 -4 -7 -9 -26 -11 -42 -2 -17 -8 -35 -13 -40 -6 -6 -10 -18 -10
-28 0 -11 -7 -33 -16 -50 -12 -24 -18 -28 -25 -17 -6 11 -9 8 -9 -8 0 -28 -8
-29 -27 -5 -13 15 -13 15 -3 -6 10 -20 8 -28 -11 -48 -22 -23 -24 -24 -36 -8
-7 10 -13 13 -13 7 0 -7 5 -15 10 -18 15 -9 1 -27 -16 -21 -8 3 -14 -1 -14
-10 0 -8 -4 -12 -10 -9 -5 3 -10 -1 -10 -9 0 -9 -6 -16 -14 -16 -7 0 -19 -7
-26 -15 -10 -12 -16 -13 -27 -4 -11 10 -12 9 -7 -5 3 -9 2 -16 -4 -16 -6 0
-13 6 -15 13 -3 6 -6 2 -6 -9 -1 -24 -27 -40 -35 -21 -2 7 -5 4 -5 -5 -1 -21
-27 -24 -34 -5 -3 6 -6 3 -7 -8 -1 -16 -4 -15 -16 10 l-14 30 5 -32 6 -31 -45
0 c-41 0 -45 2 -49 26 l-4 27 -2 -28 c0 -16 -5 -26 -11 -22 -5 3 -6 13 -3 23
6 14 4 15 -9 5 -11 -10 -23 -10 -47 -2 -17 6 -31 15 -31 21 0 5 -5 6 -10 3
-12 -7 -90 34 -90 47 0 5 -5 6 -10 3 -6 -3 -14 4 -19 17 -6 13 -10 17 -10 10
-1 -17 -60 27 -60 45 -1 7 -6 12 -13 10 -17 -3 -71 90 -71 123 0 16 -4 27 -9
24 -9 -6 -10 -4 -12 53 -2 24 -5 46 -9 49 -3 4 -2 16 4 27 8 14 8 18 0 13 -6
-4 -11 -1 -11 8 0 8 4 18 10 21 5 3 10 12 10 18 0 7 -4 6 -10 -3 -8 -12 -10
-10 -10 9 0 18 4 22 20 18 21 -5 28 7 10 18 -19 12 -48 89 -54 145 -4 30 -9
78 -12 106 -5 39 -1 62 15 98 18 42 20 60 15 149 -6 101 -5 103 29 173 40 82
87 133 155 168 l47 25 -87 1 c-77 0 -90 -3 -111 -22z m1098 -681 c10 -76 -9
-189 -39 -241 -45 -77 -76 -107 -105 -104 -47 5 -19 68 34 73 41 5 53 21 49
66 -2 22 -8 48 -14 59 -14 27 -12 34 5 20 8 -7 15 -21 15 -31 0 -10 5 -21 10
-24 22 -13 9 47 -15 71 -14 14 -25 29 -25 34 0 14 24 12 38 -2 6 -6 14 -9 17
-6 4 3 -4 16 -16 27 l-23 21 22 22 22 22 0 -37 c0 -20 5 -37 10 -37 6 0 10 16
10 35 0 46 -23 55 -56 25 -19 -19 -24 -20 -24 -8 0 16 54 68 70 68 5 0 12 -24
15 -53z m-1255 11 c16 -18 30 -40 30 -48 0 -8 -13 1 -28 20 -36 42 -62 37 -62
-13 0 -40 24 -67 42 -49 15 15 38 15 38 1 0 -7 -11 -22 -25 -35 -24 -22 -37
-83 -15 -69 6 3 10 14 10 24 0 10 7 24 15 31 19 16 19 11 0 -34 -12 -27 -13
-42 -5 -56 8 -15 8 -20 -1 -20 -7 0 -5 -8 6 -20 10 -11 28 -20 39 -20 30 0 43
-11 51 -43 6 -24 4 -27 -17 -27 -57 0 -132 127 -142 242 -9 87 0 148 20 148 8
0 28 -15 44 -32z m-10 -39 c7 -11 10 -22 8 -23 -2 -1 -11 -8 -20 -15 -16 -12
-18 -10 -18 23 0 40 13 47 30 15z m44 -158 c-4 -19 -10 -29 -16 -23 -5 5 -4
20 2 37 6 15 13 26 15 23 3 -3 2 -19 -1 -37z m1122 -47 c-6 -15 -33 -30 -41
-22 -3 2 0 21 6 42 10 38 11 38 26 17 8 -12 12 -29 9 -37z m-1082 0 c9 -34 5
-37 -23 -18 -17 13 -20 19 -10 30 17 21 26 17 33 -12z m294 -481 c10 -37 28
-61 85 -117 40 -39 87 -79 104 -88 l30 -18 70 49 c85 60 149 131 165 182 8 28
17 39 31 39 17 0 19 -5 13 -32 -10 -49 -42 -109 -83 -158 -37 -43 -174 -140
-198 -140 -22 0 -152 98 -188 142 -61 75 -93 162 -66 179 22 14 24 12 37 -38z
m107 -13 c92 -39 148 -39 239 0 38 16 71 28 73 27 2 -2 -11 -25 -28 -51 -42
-63 -163 -150 -190 -136 -53 29 -169 155 -169 185 0 7 -1 8 75 -25z"/>
<path d="M660 1792 c0 -5 9 -17 20 -27 20 -18 25 -11 14 19 -6 17 -34 23 -34
8z"/>
<path d="M700 1796 c0 -2 9 -6 20 -9 11 -3 20 -1 20 4 0 5 -9 9 -20 9 -11 0
-20 -2 -20 -4z"/>
<path d="M804 1784 c3 -9 6 -20 6 -25 0 -6 5 -7 10 -4 16 10 12 45 -6 45 -11
0 -14 -5 -10 -16z"/>
<path d="M866 1778 c9 -29 35 -70 41 -64 10 10 -19 86 -33 86 -11 0 -13 -6 -8
-22z"/>
<path d="M900 1793 c1 -5 7 -19 15 -33 l14 -25 1 33 c0 22 -5 32 -15 32 -8 0
-15 -3 -15 -7z"/>
<path d="M950 1771 c0 -21 4 -29 13 -25 8 3 18 -9 26 -31 7 -20 15 -34 18 -31
10 10 -9 66 -33 91 l-24 26 0 -30z"/>
<path d="M990 1791 c0 -5 7 -14 15 -21 13 -10 15 -9 15 9 0 12 -6 21 -15 21
-8 0 -15 -4 -15 -9z"/>
<path d="M1044 1791 c3 -5 15 -7 26 -4 16 4 20 0 20 -18 1 -23 1 -23 15 -5 23
30 18 36 -26 36 -22 0 -38 -4 -35 -9z"/>
<path d="M650 1763 c0 -7 11 -25 25 -40 13 -15 25 -23 25 -16 0 7 -11 25 -25
40 -13 15 -25 23 -25 16z"/>
<path d="M750 1736 c0 -19 9 -44 20 -57 22 -28 25 -16 9 47 -13 52 -29 58 -29
10z"/>
<path d="M1038 1764 c-5 -4 -8 -23 -8 -43 1 -30 2 -33 11 -18 11 19 8 73 -3
61z"/>
<path d="M714 1746 c-4 -11 0 -24 10 -34 15 -15 16 -15 16 3 0 11 -4 27 -10
35 -8 12 -10 12 -16 -4z"/>
<path d="M840 1731 c0 -30 39 -90 40 -61 0 27 -21 90 -30 90 -6 0 -10 -13 -10
-29z"/>
<path d="M800 1705 c0 -16 5 -37 10 -45 7 -12 10 -8 10 15 0 17 -5 37 -10 45
-7 12 -10 8 -10 -15z"/>
<path d="M950 1713 c0 -5 7 -18 15 -29 13 -18 14 -18 8 4 -5 22 -23 41 -23 25z"/>
<path d="M930 1680 c0 -14 5 -32 10 -40 8 -12 10 -10 10 10 0 14 -5 32 -10 40
-8 12 -10 10 -10 -10z"/>
<path d="M895 1668 c-4 -9 -1 -27 7 -40 l13 -23 3 22 c2 12 -1 30 -7 40 -9 17
-10 17 -16 1z"/>
<path d="M830 1638 c0 -13 7 -32 15 -42 14 -19 15 -19 15 6 0 33 -9 58 -21 58
-5 0 -9 -10 -9 -22z"/>
<path d="M506 1319 c-3 -8 -7 -23 -9 -34 -3 -14 -5 -11 -6 9 0 16 -3 27 -6 24
-9 -9 -22 -98 -14 -98 4 0 10 10 12 23 4 21 4 21 6 1 1 -19 10 -22 74 -31 63
-9 66 -10 26 -12 -46 -1 -90 -23 -76 -37 4 -4 13 -2 19 4 15 15 136 16 172 2
26 -9 38 3 14 14 -20 9 34 -4 65 -16 24 -9 27 -16 28 -57 2 -114 -2 -161 -20
-212 l-18 -55 27 -32 c32 -39 48 -31 18 9 -22 29 -22 29 -3 81 21 60 25 213 6
261 -6 16 -11 51 -11 78 0 27 -4 49 -10 49 -5 0 -10 -7 -10 -16 0 -12 -5 -14
-17 -9 -52 22 -167 55 -212 61 -39 5 -52 3 -55 -7z"/>
<path d="M1146 1314 c-38 -9 -91 -26 -118 -40 l-48 -24 0 25 c0 28 -15 34 -24
9 -7 -19 -8 -109 -1 -116 3 -3 24 -2 45 2 22 4 43 4 46 -1 2 -4 12 -6 22 -3 9
2 7 -1 -5 -7 -12 -6 -23 -20 -26 -30 -4 -15 -2 -17 13 -9 26 14 26 14 22 -24
-3 -27 1 -37 23 -55 35 -27 55 -27 90 1 23 18 26 27 22 55 -7 39 5 42 38 8 22
-21 25 -22 25 -6 0 10 -9 29 -19 42 -16 20 -32 25 -93 30 l-73 6 76 1 c47 1
79 -2 87 -10 9 -9 12 -9 12 0 0 19 -36 32 -92 33 -77 1 -31 17 51 18 l63 1 -7
37 c-15 79 -18 80 -129 57z m44 -199 c0 -9 -7 -18 -16 -22 -18 -7 -39 11 -30
26 11 17 46 13 46 -4z"/>
<path d="M1276 1305 c11 -48 24 -78 30 -72 7 6 -16 77 -29 92 -5 6 -5 -3 -1
-20z"/>
<path d="M1301 1315 c0 -11 6 -33 14 -50 17 -39 18 -11 0 35 -9 23 -14 28 -14
15z"/>
<path d="M451 1283 c0 -12 -4 -30 -7 -40 -5 -14 -4 -15 5 -7 7 6 11 24 8 40
-3 21 -4 23 -6 7z"/>
<path d="M532 1153 c-12 -10 -24 -31 -28 -48 l-7 -30 26 28 c14 15 34 27 44
27 13 0 14 -3 5 -12 -7 -7 -12 -20 -12 -30 0 -27 45 -68 73 -68 34 0 67 35 67
72 0 29 -1 30 -14 13 -14 -20 -51 -14 -43 8 4 13 62 15 91 2 16 -7 17 -6 7 14
-16 30 -50 41 -126 41 -45 0 -69 -5 -83 -17z"/>
<path d="M520 1010 c0 -29 123 -41 168 -17 20 11 14 12 -42 9 -36 -2 -79 1
-96 6 -17 6 -30 7 -30 2z"/>
<path d="M1220 1008 c-14 -5 -56 -8 -94 -6 -63 3 -67 3 -40 -9 40 -17 126 -16
150 1 25 19 16 26 -16 14z"/>
<path d="M1335 890 c3 -5 8 -10 11 -10 2 0 4 5 4 10 0 6 -5 10 -11 10 -5 0 -7
-4 -4 -10z"/>
<path d="M467 853 c-4 -3 -7 -11 -7 -17 0 -6 5 -5 12 2 6 6 9 14 7 17 -3 3 -9
2 -12 -2z"/>
<path d="M1310 840 c0 -5 5 -10 11 -10 5 0 7 5 4 10 -3 6 -8 10 -11 10 -2 0
-4 -4 -4 -10z"/>
<path d="M465 799 c-4 -6 -5 -12 -2 -15 2 -3 7 2 10 11 7 17 1 20 -8 4z"/>
<path d="M507 803 c-4 -3 -7 -11 -7 -17 0 -6 5 -5 12 2 6 6 9 14 7 17 -3 3 -9
2 -12 -2z"/>
<path d="M1300 801 c0 -5 5 -13 10 -16 6 -3 10 -2 10 4 0 5 -4 13 -10 16 -5 3
-10 2 -10 -4z"/>
<path d="M1265 790 c3 -5 8 -10 11 -10 2 0 4 5 4 10 0 6 -5 10 -11 10 -5 0 -7
-4 -4 -10z"/>
<path d="M539 773 c-13 -16 -12 -17 4 -4 9 7 17 15 17 17 0 8 -8 3 -21 -13z"/>
<path d="M586 774 c-9 -24 -2 -26 12 -4 7 11 8 20 3 20 -5 0 -12 -7 -15 -16z"/>
<path d="M1180 769 c7 -11 14 -19 16 -16 7 7 -7 37 -17 37 -6 0 -5 -9 1 -21z"/>
<path d="M1220 786 c0 -2 8 -10 18 -17 15 -13 16 -12 3 4 -13 16 -21 21 -21
13z"/>
<path d="M893 772 c-8 -5 -9 -13 -3 -22 9 -13 10 -13 10 0 1 12 4 11 15 -4 8
-11 17 -18 19 -15 10 9 -29 48 -41 41z"/>
<path d="M615 760 c-3 -5 -2 -10 4 -10 5 0 13 5 16 10 3 6 2 10 -4 10 -5 0
-13 -4 -16 -10z"/>
<path d="M801 752 c-17 -31 -13 -40 5 -14 9 13 14 26 11 29 -3 2 -10 -4 -16
-15z"/>
<path d="M827 751 c-4 -17 -3 -21 5 -13 5 5 8 16 6 23 -3 8 -7 3 -11 -10z"/>
<path d="M941 765 c0 -5 6 -19 14 -29 8 -11 15 -15 15 -10 0 6 -7 19 -15 30
-8 10 -14 15 -14 9z"/>
<path d="M1145 760 c3 -5 11 -10 16 -10 6 0 7 5 4 10 -3 6 -11 10 -16 10 -6 0
-7 -4 -4 -10z"/>
<path d="M456 743 c-6 -14 -5 -15 5 -6 7 7 10 15 7 18 -3 3 -9 -2 -12 -12z"/>
<path d="M740 745 c-7 -9 -10 -18 -7 -21 3 -3 10 4 17 15 13 25 8 27 -10 6z"/>
<path d="M766 745 c-9 -26 -7 -32 5 -12 6 10 9 21 6 23 -2 3 -7 -2 -11 -11z"/>
<path d="M980 755 c0 -5 5 -17 10 -25 5 -8 10 -10 10 -5 0 6 -5 17 -10 25 -5
8 -10 11 -10 5z"/>
<path d="M1010 751 c0 -5 7 -15 17 -22 15 -13 15 -12 4 9 -12 23 -21 28 -21
13z"/>
<path d="M1300 756 c0 -2 8 -10 18 -17 15 -13 16 -12 3 4 -13 16 -21 21 -21
13z"/>
<path d="M496 735 c-11 -8 -15 -15 -9 -15 6 0 16 7 23 15 16 19 11 19 -14 0z"/>
<path d="M659 733 c-13 -16 -12 -17 4 -4 9 7 17 15 17 17 0 8 -8 3 -21 -13z"/>
<path d="M699 733 c-13 -16 -12 -17 4 -4 9 7 17 15 17 17 0 8 -8 3 -21 -13z"/>
<path d="M1060 746 c0 -2 8 -10 18 -17 15 -13 16 -12 3 4 -13 16 -21 21 -21
13z"/>
<path d="M1110 732 c6 -13 14 -21 18 -18 3 4 -2 14 -12 24 -18 16 -18 16 -6
-6z"/>
<path d="M1272 734 c10 -10 20 -16 22 -13 3 3 -5 11 -17 18 -21 13 -21 12 -5
-5z"/>
<path d="M604 725 c-10 -8 -14 -15 -8 -15 6 0 17 7 24 15 16 19 9 19 -16 0z"/>
<path d="M1150 725 c7 -8 17 -15 22 -15 6 0 5 7 -2 15 -7 8 -17 15 -22 15 -6
0 -5 -7 2 -15z"/>
<path d="M1220 730 c8 -5 20 -10 25 -10 6 0 3 5 -5 10 -8 5 -19 10 -25 10 -5
0 -3 -5 5 -10z"/>
<path d="M550 705 c-7 -9 -11 -18 -8 -20 3 -3 11 1 18 10 7 9 11 18 8 20 -3 3
-11 -1 -18 -10z"/>
<path d="M1210 712 c0 -5 7 -15 15 -22 8 -7 15 -8 15 -2 0 5 -7 15 -15 22 -8
7 -15 8 -15 2z"/>
<path d="M1140 704 c0 -5 7 -19 15 -30 8 -10 15 -14 15 -8 0 5 -7 19 -15 30
-8 10 -15 14 -15 8z"/>
<path d="M485 690 c-3 -5 -2 -10 4 -10 5 0 13 5 16 10 3 6 2 10 -4 10 -5 0
-13 -4 -16 -10z"/>
<path d="M625 680 c-4 -12 -5 -24 -2 -27 3 -2 8 5 12 17 4 12 5 24 2 27 -3 2
-8 -5 -12 -17z"/>
<path d="M687 693 c-4 -3 -7 -11 -7 -17 0 -6 5 -5 12 2 6 6 9 14 7 17 -3 3 -9
2 -12 -2z"/>
<path d="M1275 690 c3 -5 11 -10 16 -10 6 0 7 5 4 10 -3 6 -11 10 -16 10 -6 0
-7 -4 -4 -10z"/>
<path d="M575 680 c-3 -6 1 -7 9 -4 18 7 21 14 7 14 -6 0 -13 -4 -16 -10z"/>
<path d="M740 676 c21 -21 290 -19 290 2 0 4 -67 7 -150 7 -99 1 -146 -3 -140
-9z"/>
<path d="M1115 670 c10 -11 20 -20 22 -20 2 0 -1 9 -7 20 -6 11 -16 20 -22 20
-6 0 -3 -9 7 -20z"/>
<path d="M1197 679 c7 -7 15 -10 18 -7 3 3 -2 9 -12 12 -14 6 -15 5 -6 -5z"/>
<path d="M490 655 c-7 -8 -8 -15 -2 -15 5 0 15 7 22 15 7 8 8 15 2 15 -5 0
-15 -7 -22 -15z"/>
<path d="M1272 654 c10 -10 20 -15 24 -12 3 4 -5 12 -18 18 -22 12 -22 12 -6
-6z"/>
<path d="M530 645 c-7 -9 -8 -15 -2 -15 5 0 12 7 16 15 3 8 4 15 2 15 -2 0 -9
-7 -16 -15z"/>
<path d="M577 653 c-4 -3 -7 -11 -7 -17 0 -6 5 -5 12 2 6 6 9 14 7 17 -3 3 -9
2 -12 -2z"/>
<path d="M1236 647 c3 -10 9 -15 12 -12 3 3 0 11 -7 18 -10 9 -11 8 -5 -6z"/>
<path d="M1195 640 c3 -5 8 -10 11 -10 2 0 4 5 4 10 0 6 -5 10 -11 10 -5 0 -7
-4 -4 -10z"/>
<path d="M605 620 c-4 -12 -5 -24 -2 -27 3 -2 8 5 12 17 4 12 5 24 2 27 -3 2
-8 -5 -12 -17z"/>
<path d="M656 624 c-5 -14 -4 -15 9 -4 17 14 19 20 6 20 -5 0 -12 -7 -15 -16z"/>
<path d="M1100 636 c0 -2 8 -10 18 -17 15 -13 16 -12 3 4 -13 16 -21 21 -21
13z"/>
<path d="M1160 630 c0 -8 5 -22 10 -30 9 -13 10 -13 10 0 0 8 -5 22 -10 30 -9
13 -10 13 -10 0z"/>
<path d="M496 613 c-6 -14 -5 -15 5 -6 7 7 10 15 7 18 -3 3 -9 -2 -12 -12z"/>
<path d="M530 600 c-6 -11 -8 -20 -6 -20 3 0 10 9 16 20 6 11 8 20 6 20 -3 0
-10 -9 -16 -20z"/>
<path d="M686 603 c-6 -14 -5 -15 5 -6 7 7 10 15 7 18 -3 3 -9 -2 -12 -12z"/>
<path d="M1070 616 c0 -2 8 -10 18 -17 15 -13 16 -12 3 4 -13 16 -21 21 -21
13z"/>
<path d="M571 583 c-10 -26 -10 -27 4 -9 8 11 15 23 15 28 0 15 -7 8 -19 -19z"/>
<path d="M806 589 c3 -6 18 -8 33 -5 14 3 20 3 14 0 -24 -11 -13 -24 15 -18
21 4 24 3 12 -5 -12 -8 -8 -11 18 -11 25 0 32 4 32 19 0 24 -19 31 -81 31 -34
0 -48 -4 -43 -11z"/>
<path d="M1200 580 c6 -11 13 -20 16 -20 2 0 0 9 -6 20 -6 11 -13 20 -16 20
-2 0 0 -9 6 -20z"/>
<path d="M626 575 c-9 -26 -7 -32 5 -12 6 10 9 21 6 23 -2 3 -7 -2 -11 -11z"/>
<path d="M695 570 c-10 -11 -14 -20 -9 -20 5 0 15 9 22 20 7 11 11 20 9 20 -2
0 -12 -9 -22 -20z"/>
<path d="M1070 570 c6 -11 16 -20 22 -20 6 0 3 9 -7 20 -10 11 -20 20 -22 20
-2 0 1 -9 7 -20z"/>
<path d="M1140 585 c0 -5 5 -17 10 -25 5 -8 10 -10 10 -5 0 6 -5 17 -10 25 -5
8 -10 11 -10 5z"/>
<path d="M651 573 c-1 -6 -4 -20 -7 -30 -5 -17 -5 -17 6 0 6 10 9 23 6 30 -3
9 -5 9 -5 0z"/>
<path d="M1120 556 c0 -8 4 -17 9 -20 5 -4 7 3 4 14 -6 23 -13 26 -13 6z"/>
<path d="M585 549 c-4 -6 -5 -12 -2 -15 2 -3 7 2 10 11 7 17 1 20 -8 4z"/>
<path d="M711 538 c-13 -22 -13 -22 4 -8 17 14 17 13 10 -9 -4 -15 -3 -21 3
-17 5 3 12 15 15 26 3 11 1 18 -3 15 -5 -3 -10 -1 -12 5 -2 6 -9 0 -17 -12z"/>
<path d="M1050 553 c0 -6 8 -17 18 -24 16 -13 16 -13 2 6 -8 11 -16 22 -17 24
-2 2 -3 0 -3 -6z"/>
<path d="M756 535 c-3 -8 -1 -15 4 -15 6 0 10 7 10 15 0 8 -2 15 -4 15 -2 0
-6 -7 -10 -15z"/>
<path d="M940 543 c0 -4 5 -15 10 -23 8 -13 10 -13 10 2 0 9 -4 20 -10 23 -5
3 -10 3 -10 -2z"/>
<path d="M870 520 c0 -8 5 -22 10 -30 9 -13 10 -13 10 0 0 8 -5 22 -10 30 -9
13 -10 13 -10 0z"/>
<path d="M1010 524 c0 -6 7 -19 16 -30 14 -18 14 -18 3 6 -14 31 -19 36 -19
24z"/>
<path d="M800 500 c-6 -12 -9 -24 -7 -27 3 -2 11 5 17 17 6 12 9 24 7 27 -3 2
-11 -5 -17 -17z"/>
<path d="M1040 515 c0 -5 5 -17 10 -25 5 -8 10 -10 10 -5 0 6 -5 17 -10 25 -5
8 -10 11 -10 5z"/>
<path d="M686 483 c-6 -14 -5 -15 5 -6 7 7 10 15 7 18 -3 3 -9 -2 -12 -12z"/>
<path d="M757 478 c-9 -31 -2 -33 11 -3 6 14 8 25 3 25 -5 0 -11 -10 -14 -22z"/>
<path d="M832 475 c0 -16 2 -22 5 -12 2 9 2 23 0 30 -3 6 -5 -1 -5 -18z"/>
<path d="M911 480 c14 -31 19 -36 19 -24 0 6 -7 19 -16 30 -14 18 -14 18 -3
-6z"/>
<path d="M971 494 c-1 -5 6 -19 14 -30 8 -10 15 -14 15 -9 0 6 5 3 11 -5 9
-12 10 -12 5 3 -3 10 -6 23 -6 29 0 6 -6 8 -14 5 -8 -3 -17 -1 -20 6 -2 7 -5
7 -5 1z"/>
<path d="M1080 491 c0 -6 4 -13 10 -16 6 -3 7 1 4 9 -7 18 -14 21 -14 7z"/>
<path d="M720 470 c-6 -11 -8 -20 -6 -20 3 0 10 9 16 20 6 11 8 20 6 20 -3 0
-10 -9 -16 -20z"/>
<path d="M851 483 c0 -4 4 -17 9 -28 8 -19 9 -19 9 2 1 12 -3 25 -9 28 -5 3
-10 3 -9 -2z"/>
<path d="M950 474 c0 -6 7 -19 16 -30 14 -18 14 -18 3 6 -14 31 -19 36 -19 24z"/>
<path d="M786 445 c-9 -26 -7 -32 5 -12 6 10 9 21 6 23 -2 3 -7 -2 -11 -11z"/>
<path d="M890 448 c0 -7 5 -20 10 -28 8 -12 10 -11 10 7 0 12 -4 25 -10 28 -5
3 -10 0 -10 -7z"/>
</g>
</svg>
