<?xml version="1.0" ?><svg viewBox="0 0 500 969" xmlns="http://www.w3.org/2000/svg"><view id="abp" viewBox="0 0 500 500"/><g transform="translate(0 0)"><polygon fill="#C70D2C" points="462,162.2 337.8,38 162.2,38 38,162.2 38,337.8 162.2,462 337.8,462 462,337.8 "/><path d="M337.8,38L462,162.2v175.6L337.8,462H162.2L38,337.8V162.2L162.2,38H337.8 M353.5,0H146.4L0,146.4v207.1  L146.4,500h207.1L500,353.5V146.4L353.5,0z" fill="#FFFFFF"/><g fill="#FFFFFF" id="e55cb8f3-def6-417d-9f9c-9a543de5e15a">
	<path d="M134.8,293.5H88.3L79,335.1H44L91.6,160h41.3l47.6,175.2h-36.4L134.8,293.5z M127.8,262.6l-3.5-16.1   c-2.2-8.8-4.3-18.1-6.3-27.9c-2-9.9-4-19.3-6.1-28.5H111c-1.9,9.3-3.8,18.9-5.7,28.6c-1.9,9.7-4,19-6.2,27.8l-3.7,16.1H127.8z"/>
	<path d="M201.8,160h52.1c7.4-0.1,14.8,0.6,22.1,2c6.3,1.2,12.4,3.6,17.7,7.1c5,3.4,9.1,8,11.9,13.4   c2.9,5.6,4.3,12.6,4.3,21c0,4-0.5,8-1.5,11.8c-1,3.9-2.5,7.6-4.5,11c-2.1,3.5-4.8,6.6-7.9,9.1c-3.4,2.7-7.3,4.7-11.4,5.9v1.1   c10.9,2.3,19.1,6.8,24.6,13.4s8.3,15.8,8.3,27.7c0,9-1.5,16.7-4.5,23.1c-2.9,6.3-7.2,11.7-12.6,16c-5.6,4.3-12,7.5-18.8,9.4   c-7.5,2.1-15.3,3.2-23.1,3.1H202V160H201.8z M252.2,230.7c8.4,0,14.5-1.9,18.3-5.8c3.8-3.9,5.7-9.1,5.7-15.7   c0-6.6-1.9-11.4-5.8-14.2s-9.9-4.3-18-4.3h-16.3v40H252.2z M255.5,304.5c18.8,0,28.2-8,28.2-23.9c0-7.7-2.3-13.3-7-16.8   s-11.7-5.2-21.2-5.2h-19.4v45.9H255.5z"/>
	<path d="M340.9,160h55.6c7.8-0.1,15.6,0.9,23.2,2.8c6.9,1.7,13.4,4.9,18.9,9.4c5.6,4.7,10,10.7,12.7,17.5   c3.1,7.2,4.7,16.1,4.7,26.7c0,10.2-1.6,19.1-4.8,26.6c-2.9,7.1-7.3,13.4-13,18.5c-5.5,4.9-11.9,8.5-18.9,10.8   c-7.4,2.4-15.1,3.5-22.9,3.5h-21.2v59.4h-34.3L340.9,160L340.9,160z M394.4,244.4c18.7,0,28-9.3,28-27.9c0-9.1-2.4-15.6-7.1-19.4   c-4.7-3.8-11.7-5.6-20.9-5.6h-19.1v52.9H394.4z"/>
</g><path d="M349.4,10L490,150.6v198.8L349.4,490H150.6L10,349.4V150.6L150.6,10H349.4 M353.6,0H146.4L0,146.4v207.1  L146.4,500h207.1L500,353.5V146.4L353.6,0L353.6,0z" fill="#D8D9DA"/></g><view id="cc-by-sa" viewBox="0 500 80 15"/><g transform="translate(0 500)"><defs>
    <clipPath clipPathUnits="userSpaceOnUse" id="clipPath3442">
      <rect height="12.483703" style="fill:#000000" width="20.614058" x="171.99832" y="239.1203"/>
    </clipPath>
  </defs><g>
    <g transform="matrix(0.9875019,0,0,0.9333518,-323.90064,-356.81188)">
      <g transform="translate(158,145)">
        <rect height="15" style="fill:#ffffff;stroke:#000000;stroke-width:1.04161763;stroke-miterlimit:4;stroke-dasharray:none" width="80" x="170.5" y="237.86218"/>
        <rect height="12" style="fill:#000000" width="77" x="172" y="239.36218"/>
        <path d="M 171.99996,239.37505 L 171.99996,251.37505 L 192.33474,251.37505 C 193.64339,249.62474 194.52652,247.59057 194.52652,245.37505 C 194.52652,243.17431 193.65859,241.1179 192.36599,239.37505 L 171.99996,239.37505 z" style="fill:#abb1aa"/>
        <g clip-path="url(#clipPath3442)" transform="matrix(0.9612533,0,0,0.9612533,6.8341566,9.5069994)">
          <path d="M 190.06417,245.36206 C 190.06667,249.25405 186.91326,252.41072 183.02153,252.41323 C 179.12979,252.41572 175.97262,249.26256 175.97036,245.3706 C 175.97036,245.36783 175.97036,245.36507 175.97036,245.36206 C 175.9681,241.47007 179.12126,238.3134 183.013,238.31113 C 186.90524,238.30864 190.06191,241.46181 190.06417,245.3538 C 190.06417,245.35628 190.06417,245.35929 190.06417,245.36206 z" style="fill:#ffffff"/>
          <path d="M 188.74576,239.62226 C 190.30843,241.18492 191.08988,243.09869 191.08988,245.36206 C 191.08988,247.62592 190.32197,249.51913 188.78615,251.04165 C 187.15627,252.64521 185.22995,253.44672 183.00722,253.44672 C 180.81132,253.44672 178.91837,252.65172 177.32887,251.06174 C 175.73912,249.47198 174.94436,247.57226 174.94436,245.36206 C 174.94436,243.15235 175.73912,241.23908 177.32887,239.62226 C 178.87799,238.0591 180.77094,237.27764 183.00722,237.27764 C 185.2706,237.27764 187.18312,238.05909 188.74576,239.62226 z M 178.38093,240.67355 C 177.05978,242.008 176.39945,243.57116 176.39945,245.36429 C 176.39945,247.15694 177.05326,248.70682 178.36062,250.01393 C 179.66822,251.32153 181.22487,251.97509 183.03105,251.97509 C 184.83724,251.97509 186.40716,251.31502 187.74161,249.99412 C 189.0086,248.76725 189.64234,247.22467 189.64234,245.36429 C 189.64234,243.51799 188.99831,241.95084 187.71101,240.66354 C 186.42396,239.37649 184.86406,238.7327 183.03105,238.7327 C 181.19804,238.73271 179.64767,239.37975 178.38093,240.67355 z M 181.85761,244.57559 C 181.65573,244.13545 181.35354,243.91525 180.95051,243.91525 C 180.23802,243.91525 179.8819,244.39501 179.8819,245.35404 C 179.8819,246.31328 180.23802,246.79255 180.95051,246.79255 C 181.421,246.79255 181.75705,246.55908 181.95869,246.09111 L 182.94629,246.61701 C 182.47555,247.45339 181.76934,247.87168 180.82763,247.87168 C 180.10136,247.87168 179.51953,247.64899 179.08265,247.20409 C 178.64502,246.7587 178.42684,246.14477 178.42684,245.36206 C 178.42684,244.59313 178.65204,243.98271 179.10271,243.53056 C 179.55338,243.07838 180.11463,242.8524 180.7875,242.8524 C 181.78288,242.8524 182.49561,243.24465 182.92647,244.02835 L 181.85761,244.57559 z M 186.50398,244.57559 C 186.30184,244.13545 186.00567,243.91525 185.61517,243.91525 C 184.88839,243.91525 184.52474,244.39501 184.52474,245.35404 C 184.52474,246.31328 184.88839,246.79255 185.61517,246.79255 C 186.08642,246.79255 186.41644,246.55908 186.6048,246.09111 L 187.61447,246.61701 C 187.14448,247.45339 186.43926,247.87168 185.49931,247.87168 C 184.77403,247.87168 184.19346,247.64899 183.75683,247.20409 C 183.32096,246.7587 183.10254,246.14477 183.10254,245.36206 C 183.10254,244.59313 183.32422,243.98271 183.76737,243.53056 C 184.21026,243.07838 184.77404,242.8524 185.4592,242.8524 C 186.45282,242.8524 187.16455,243.24465 187.5939,244.02835 L 186.50398,244.57559 z"/>
        </g>
      </g>
      <path d="M 357.4197,389.68502 C 357.66518,389.68502 357.85131,389.63144 357.9781,389.52427 C 358.10488,389.4171 358.16827,389.25904 358.16828,389.05005 C 358.16827,388.84376 358.10488,388.68703 357.9781,388.57986 C 357.85131,388.47002 357.66518,388.4151 357.4197,388.41509 L 356.55784,388.41509 L 356.55784,389.68502 L 357.4197,389.68502 M 357.4723,392.30926 C 357.78522,392.30926 358.0199,392.24363 358.17637,392.11235 C 358.33552,391.98107 358.4151,391.78281 358.4151,391.51756 C 358.4151,391.25769 358.33686,391.06345 358.18041,390.93485 C 358.02396,390.80357 357.78792,390.73793 357.4723,390.73793 L 356.55784,390.73793 L 356.55784,392.30926 L 357.4723,392.30926 M 358.92089,390.15119 C 359.25538,390.24764 359.51434,390.42581 359.69779,390.68568 C 359.88121,390.94557 359.97293,391.26439 359.97294,391.64215 C 359.97293,392.22086 359.776,392.6522 359.38217,392.93619 C 358.98833,393.22018 358.38947,393.36218 357.5856,393.36218 L 355.00001,393.36218 L 355.00001,387.36218 L 357.33878,387.36218 C 358.17771,387.36218 358.78466,387.4881 359.15962,387.73994 C 359.53727,387.99178 359.7261,388.395 359.7261,388.94959 C 359.7261,389.24162 359.65732,389.49078 359.51975,389.69708 C 359.38217,389.90069 359.18255,390.05206 358.92089,390.15119 M 359.83746,387.36218 L 361.54096,387.36218 L 362.91671,389.50015 L 364.29245,387.36218 L 366,387.36218 L 363.69764,390.83438 L 363.69764,393.36218 L 362.13982,393.36218 L 362.13982,390.83438 L 359.83746,387.36218 M 365.15837,390.40839 L 367.69946,390.40839 L 367.69946,391.57785 L 365.15837,391.57785 L 365.15837,390.40839 M 373.12153,387.55105 L 373.12153,388.82099 C 372.78973,388.67363 372.46602,388.56245 372.15042,388.48743 C 371.8348,388.41241 371.53671,388.3749 371.25618,388.3749 C 370.88391,388.3749 370.60877,388.42581 370.43073,388.52761 C 370.25268,388.62943 370.16367,388.7875 370.16367,389.00183 C 370.16367,389.16259 370.22301,389.28851 370.3417,389.37959 C 370.4631,389.46801 370.68159,389.54436 370.99721,389.60866 L 371.66081,389.74127 C 372.33249,389.87524 372.80996,390.07886 373.0932,390.35213 C 373.37644,390.62541 373.51806,391.01389 373.51807,391.51756 C 373.51806,392.17933 373.3198,392.67229 372.92326,392.99647 C 372.52941,393.31797 371.92651,393.47872 371.11455,393.47872 C 370.7315,393.47872 370.3471,393.44255 369.96136,393.37021 C 369.5756,393.29788 369.18985,393.1907 368.80411,393.04871 L 368.80411,391.74262 C 369.18985,391.94624 369.56211,392.10029 369.92089,392.20477 C 370.28236,392.30658 370.63034,392.35749 370.96484,392.35749 C 371.30473,392.35749 371.56504,392.30123 371.74578,392.1887 C 371.92651,392.07618 372.01688,391.91542 372.01688,391.70645 C 372.01688,391.51891 371.95484,391.37423 371.83076,391.27242 C 371.70936,391.17062 371.46523,391.07952 371.09837,390.99915 L 370.49547,390.86653 C 369.89122,390.73793 369.44882,390.53297 369.16827,390.25166 C 368.89042,389.97035 368.7515,389.59125 368.7515,389.11435 C 368.7515,388.51691 368.94572,388.05743 369.33418,387.73592 C 369.72262,387.41442 370.28101,387.25367 371.00935,387.25367 C 371.34115,387.25367 371.68238,387.27912 372.03307,387.33003 C 372.38374,387.37826 372.74656,387.45193 373.12153,387.55105 M 378.55573,392.26907 L 376.11985,392.26907 L 375.73545,393.36218 L 374.16953,393.36218 L 376.40714,387.36218 L 378.2644,387.36218 L 380.50201,393.36218 L 378.93609,393.36218 L 378.55573,392.26907 M 376.5083,391.15588 L 378.16324,391.15588 L 377.3378,388.76874 L 376.5083,391.15588" style="fill:#ffffff"/>
    </g>
  </g></g><view id="github" viewBox="0 515 24 24"/><g transform="translate(0 515)"><path d="M12 .297c-6.63 0-12 5.373-12 12 0 5.303 3.438 9.8 8.205 11.385.6.113.82-.258.82-.577 0-.285-.01-1.04-.015-2.04-3.338.724-4.042-1.61-4.042-1.61C4.422 18.07 3.633 17.7 3.633 17.7c-1.087-.744.084-.729.084-.729 1.205.084 1.838 1.236 1.838 1.236 1.07 1.835 2.809 1.305 3.495.998.108-.776.417-1.305.76-1.605-2.665-.3-5.466-1.332-5.466-5.93 0-1.31.465-2.38 1.235-3.22-.135-.303-.54-1.523.105-3.176 0 0 1.005-.322 3.3 1.23.96-.267 1.98-.399 3-.405 1.02.006 2.04.138 3 .405 2.28-1.552 3.285-1.23 3.285-1.23.645 1.653.24 2.873.12 3.176.765.84 1.23 1.91 1.23 3.22 0 4.61-2.805 5.625-5.475 5.92.42.36.81 1.096.81 2.22 0 1.606-.015 2.896-.015 3.286 0 .315.21.69.825.57C20.565 22.092 24 17.592 24 12.297c0-6.627-5.373-12-12-12"/></g><view id="mastodon" viewBox="0 539 24 24"/><g transform="translate(0 539)"><path d="M23.193 7.879c0-5.206-3.411-6.732-3.411-6.732C18.062.357 15.108.025 12.041 0h-.076c-3.068.025-6.02.357-7.74 1.147 0 0-3.411 1.526-3.411 6.732 0 1.192-.023 2.618.015 4.129.124 5.092.934 10.109 5.641 11.355 2.17.574 4.034.695 5.535.612 2.722-.15 4.25-.972 4.25-.972l-.09-1.975s-1.945.613-4.129.539c-2.165-.074-4.449-.233-4.799-2.891a5.499 5.499 0 0 1-.048-.745s2.125.52 4.817.643c1.646.075 3.19-.097 4.758-.283 3.007-.359 5.625-2.212 5.954-3.905.517-2.665.475-6.507.475-6.507zm-4.024 6.709h-2.497V8.469c0-1.29-.543-1.944-1.628-1.944-1.2 0-1.802.776-1.802 2.312v3.349h-2.483v-3.35c0-1.536-.602-2.312-1.802-2.312-1.085 0-1.628.655-1.628 1.944v6.119H4.832V8.284c0-1.289.328-2.313.987-3.07.68-.758 1.569-1.146 2.674-1.146 1.278 0 2.246.491 2.886 1.474L12 6.585l.622-1.043c.64-.983 1.608-1.474 2.886-1.474 1.104 0 1.994.388 2.674 1.146.658.757.986 1.781.986 3.07v6.304z"/></g><view id="pfp" viewBox="0 563 334 334"/><g transform="translate(-185 473)"><path d="M 416 245 a 90 90 0 1 0 -128 0 v 112 a 64 64 0 0 0 128 0 Z" fill="black"/><path d="M 408 357 V 241 a 82 82 0 0 0 -8 -126 V 386 a 56 56 0 0 0 8 -29 M 296 357 V 241 a 82 82 0 0 1 8 -126 V 386 a 56 56 0 0 1 -8 -29" fill="white"/><path d="M 381 125 h -12 a 16 16 0 0 0 -16 16 v 80 a 16 16 0 0 1 -16 16 h -12 M 338 176 h 30" fill-opacity="0" stroke="white" stroke-linecap="round" stroke-width="16"/></g><view id="rss" viewBox="0 897 24 24"/><g transform="translate(0 897)"><path d="M19.199 24C19.199 13.467 10.533 4.8 0 4.8V0c13.165 0 24 10.835 24 24h-4.801zM3.291 17.415c1.814 0 3.293 1.479 3.293 3.295 0 1.813-1.485 3.29-3.301 3.29C1.47 24 0 22.526 0 20.71s1.475-3.294 3.291-3.295zM15.909 24h-4.665c0-6.169-5.075-11.245-11.244-11.245V8.09c8.727 0 15.909 7.184 15.909 15.91z"/></g><view id="stackoverflow" viewBox="0 921 24 24"/><g transform="translate(0 921)"><path d="M18.986 21.865v-6.404h2.134V24H1.844v-8.539h2.13v6.404h15.012zM6.111 19.731H16.85v-2.137H6.111v2.137zm.259-4.852l10.48 2.189.451-2.07-10.478-2.187-.453 2.068zm1.359-5.056l9.705 4.53.903-1.95-9.706-4.53-.902 1.936v.014zm2.715-4.785l8.217 6.855 1.359-1.62-8.216-6.853-1.35 1.617-.01.001zM15.751 0l-1.746 1.294 6.405 8.604 1.746-1.294L15.749 0h.002z"/></g><view id="twitter" viewBox="0 945 24 24"/><g transform="translate(0 945)"><path d="M23.954 4.569c-.885.389-1.83.654-2.825.775 1.014-.611 1.794-1.574 2.163-2.723-.951.555-2.005.959-3.127 1.184-.896-.959-2.173-1.559-3.591-1.559-2.717 0-4.92 2.203-4.92 4.917 0 .39.045.765.127 1.124C7.691 8.094 4.066 6.13 1.64 3.161c-.427.722-.666 1.561-.666 2.475 0 1.71.87 3.213 2.188 4.096-.807-.026-1.566-.248-2.228-.616v.061c0 2.385 1.693 4.374 3.946 4.827-.413.111-.849.171-1.296.171-.314 0-.615-.03-.916-.086.631 1.953 2.445 3.377 4.604 3.417-1.68 1.319-3.809 2.105-6.102 2.105-.39 0-.779-.023-1.17-.067 2.189 1.394 4.768 2.209 7.557 2.209 9.054 0 13.999-7.496 13.999-13.986 0-.209 0-.42-.015-.63.961-.689 1.8-1.56 2.46-2.548l-.047-.02z"/></g></svg>
